<svg version="1.1" id="Layer_1" xmlns="http://www.w3.org/2000/svg" xmlns:xlink="http://www.w3.org/1999/xlink" x="0px" y="0px"
	 width="100%" viewBox="0 0 2000 2000" enable-background="new 0 0 2000 2000" xml:space="preserve">
<path fill="#B20EE1" opacity="1.000000" stroke="none" 
	d="
M1264.000000,2001.000000 
	C842.666687,2001.000000 421.833344,2001.000000 1.000000,2001.000000 
	C1.000000,1334.333374 1.000000,667.666687 1.000000,1.000000 
	C667.666687,1.000000 1334.333374,1.000000 2001.000000,1.000000 
	C2001.000000,667.666687 2001.000000,1334.333374 2001.000000,2001.000000 
	C1755.500000,2001.000000 1510.000000,2001.000000 1264.000000,2001.000000 
M1529.276611,358.180817 
	C1482.761475,350.369904 1435.868286,350.226715 1388.692139,350.862213 
	C1388.692139,404.800537 1388.692139,458.338104 1388.692139,512.696472 
	C1396.875000,512.696472 1404.715576,512.226135 1412.481323,512.787781 
	C1432.876709,514.262939 1453.335449,515.460571 1473.590332,518.125427 
	C1496.541992,521.145142 1520.548828,538.135681 1522.097656,569.471741 
	C1523.601074,599.889771 1526.040527,630.260742 1527.632202,660.675293 
	C1529.267822,691.928955 1529.678223,723.260132 1531.910522,754.465393 
	C1534.129028,785.478271 1536.449707,816.620789 1541.446533,847.262756 
	C1547.544678,884.658325 1563.065552,918.488220 1588.690552,947.015442 
	C1605.611816,965.853027 1625.578125,981.129456 1646.512207,995.200623 
	C1648.347046,996.433899 1650.141724,997.726807 1652.293335,999.228088 
	C1649.014648,1001.238708 1646.451172,1002.783508 1643.914307,1004.370667 
	C1626.188599,1015.460205 1609.656006,1028.065308 1595.432861,1043.463867 
	C1567.442139,1073.767578 1551.654785,1110.286377 1542.138550,1149.825806 
	C1535.958252,1175.504883 1534.174194,1201.801880 1532.903931,1228.066284 
	C1530.684448,1273.956909 1528.885010,1319.869263 1527.164917,1365.782104 
	C1526.373535,1386.903198 1526.256226,1408.000732 1522.219116,1428.915161 
	C1516.706909,1457.470703 1501.266968,1475.634644 1471.490112,1479.125488 
	C1450.859375,1481.543945 1430.145386,1483.295776 1409.441528,1485.021240 
	C1402.744263,1485.579468 1395.961182,1485.108887 1389.298828,1485.108887 
	C1389.298828,1539.922241 1389.298828,1593.680786 1389.298828,1647.726318 
	C1390.703979,1647.788940 1391.842773,1647.912109 1392.977173,1647.879639 
	C1427.757935,1646.885986 1462.587402,1646.698853 1497.303223,1644.616943 
	C1526.415039,1642.871216 1555.153320,1637.667480 1582.513794,1626.864380 
	C1625.434448,1609.917480 1658.325317,1581.840210 1678.484009,1539.754272 
	C1691.157715,1513.294678 1696.044800,1484.903564 1697.632202,1456.073486 
	C1699.910767,1414.692993 1700.917114,1373.240112 1702.260864,1331.811401 
	C1702.973267,1309.845337 1702.915527,1287.851562 1703.805908,1265.894653 
	C1705.041626,1235.416748 1708.166138,1205.130615 1715.900269,1175.508423 
	C1720.980225,1156.052368 1727.638428,1137.276123 1741.498779,1122.021851 
	C1764.071777,1097.178955 1793.142334,1085.841431 1825.684204,1081.968384 
	C1833.718262,1081.012329 1841.823364,1080.651367 1849.979858,1080.010132 
	C1849.979858,1025.876221 1849.979858,972.145752 1849.979858,918.973389 
	C1835.107422,916.971313 1820.518677,915.610229 1806.176758,912.929199 
	C1786.821655,909.311035 1768.080933,903.152222 1754.012939,888.598877 
	C1730.781128,864.565491 1715.472412,836.023071 1710.023926,802.831543 
	C1704.426758,768.735779 1703.899414,734.217529 1703.074585,699.776672 
	C1702.181152,662.482117 1702.310669,625.160034 1701.167480,587.875305 
	C1700.140869,554.385010 1696.341553,521.142883 1687.787964,488.623016 
	C1673.821289,435.523712 1642.501343,397.097382 1591.539917,375.438385 
	C1571.825195,367.059387 1551.126953,362.143799 1529.276611,358.180817 
M295.302765,1399.234741 
	C295.872498,1409.034424 296.340210,1418.841431 297.031067,1428.632568 
	C299.108521,1458.074585 302.814972,1487.273560 311.112274,1515.699219 
	C325.589203,1565.295898 355.909973,1601.226929 403.537262,1621.998169 
	C435.519165,1635.946045 469.421692,1642.284424 503.880402,1644.617310 
	C536.910278,1646.853394 570.089050,1646.890259 603.202698,1647.884521 
	C604.785706,1647.932129 606.371338,1647.890747 607.960999,1647.890747 
	C607.960999,1593.343140 607.960999,1539.590088 607.960999,1485.625854 
	C606.506897,1485.500610 605.374878,1485.349243 604.239197,1485.313477 
	C590.260254,1484.873291 576.206787,1485.197388 562.321350,1483.821899 
	C546.969482,1482.301147 531.477173,1480.378784 516.573120,1476.569092 
	C492.345276,1470.376221 474.894897,1447.114258 473.705750,1422.229370 
	C472.736389,1401.942871 471.669006,1381.661011 470.617004,1361.378540 
	C468.719971,1324.804077 466.725128,1288.234619 464.915649,1251.655884 
	C463.302704,1219.049805 460.888580,1186.575562 454.975372,1154.371094 
	C444.275818,1096.099365 415.875305,1049.143555 367.569214,1014.521912 
	C360.324738,1009.329712 352.893188,1004.398438 345.157776,999.077942 
	C349.730377,995.972656 353.945099,993.058105 358.211304,990.221069 
	C403.027039,960.418640 434.958618,921.041321 450.537659,868.790527 
	C459.277557,839.477539 463.223297,809.558289 464.617157,779.271606 
	C467.234467,722.399841 469.099152,665.493469 471.313690,608.602966 
	C472.007690,590.774902 473.669067,573.101624 478.880188,555.885376 
	C484.563263,537.109863 496.141785,525.119690 515.697205,520.522034 
	C535.101257,515.959900 554.739197,513.924316 574.536438,513.083984 
	C585.790955,512.606262 597.082275,512.997681 608.519348,512.997681 
	C608.519348,458.154938 608.519348,404.609985 608.519348,350.987244 
	C607.169250,350.870941 606.179260,350.691498 605.193970,350.714417 
	C573.234802,351.458130 541.253479,351.713928 509.324066,353.135315 
	C481.662933,354.366699 454.271973,358.462555 427.877747,367.169556 
	C364.424500,388.101685 322.485840,429.787598 306.626465,495.573669 
	C298.944000,527.441162 297.554260,560.168945 296.453186,592.761475 
	C295.143188,631.538452 295.059326,670.355652 294.277740,709.152039 
	C293.525421,746.497070 290.947998,783.671570 282.089996,820.122253 
	C277.546875,838.817383 271.694305,857.106018 259.356445,872.333252 
	C239.271988,897.121521 212.300049,909.845520 181.442291,914.973572 
	C170.189728,916.843506 158.742584,917.542480 147.224670,918.793030 
	C147.224670,972.373413 147.224670,1026.138184 147.224670,1080.170288 
	C149.226959,1080.363281 151.037231,1080.491577 152.835052,1080.718506 
	C166.526932,1082.446167 180.372452,1083.413818 193.870361,1086.115723 
	C214.742676,1090.293335 234.148514,1098.118286 248.564240,1114.801636 
	C260.953247,1129.139526 270.617310,1145.192383 277.945557,1162.708618 
	C288.433746,1187.778076 290.781342,1214.365234 291.809204,1240.958008 
	C293.423248,1282.717285 293.803528,1324.524292 294.693115,1366.311401 
	C294.919952,1376.967163 295.097412,1387.623901 295.302765,1399.234741 
z"/>
<path fill="#FFFFFF" opacity="1.000000" stroke="none" 
	d="
M1529.707764,358.238220 
	C1551.126953,362.143799 1571.825195,367.059387 1591.539917,375.438385 
	C1642.501343,397.097382 1673.821289,435.523712 1687.787964,488.623016 
	C1696.341553,521.142883 1700.140869,554.385010 1701.167480,587.875305 
	C1702.310669,625.160034 1702.181152,662.482117 1703.074585,699.776672 
	C1703.899414,734.217529 1704.426758,768.735779 1710.023926,802.831543 
	C1715.472412,836.023071 1730.781128,864.565491 1754.012939,888.598877 
	C1768.080933,903.152222 1786.821655,909.311035 1806.176758,912.929199 
	C1820.518677,915.610229 1835.107422,916.971313 1849.979858,918.973389 
	C1849.979858,972.145752 1849.979858,1025.876221 1849.979858,1080.010132 
	C1841.823364,1080.651367 1833.718262,1081.012329 1825.684204,1081.968384 
	C1793.142334,1085.841431 1764.071777,1097.178955 1741.498779,1122.021851 
	C1727.638428,1137.276123 1720.980225,1156.052368 1715.900269,1175.508423 
	C1708.166138,1205.130615 1705.041626,1235.416748 1703.805908,1265.894653 
	C1702.915527,1287.851562 1702.973267,1309.845337 1702.260864,1331.811401 
	C1700.917114,1373.240112 1699.910767,1414.692993 1697.632202,1456.073486 
	C1696.044800,1484.903564 1691.157715,1513.294678 1678.484009,1539.754272 
	C1658.325317,1581.840210 1625.434448,1609.917480 1582.513794,1626.864380 
	C1555.153320,1637.667480 1526.415039,1642.871216 1497.303223,1644.616943 
	C1462.587402,1646.698853 1427.757935,1646.885986 1392.977173,1647.879639 
	C1391.842773,1647.912109 1390.703979,1647.788940 1389.298828,1647.726318 
	C1389.298828,1593.680786 1389.298828,1539.922241 1389.298828,1485.108887 
	C1395.961182,1485.108887 1402.744263,1485.579468 1409.441528,1485.021240 
	C1430.145386,1483.295776 1450.859375,1481.543945 1471.490112,1479.125488 
	C1501.266968,1475.634644 1516.706909,1457.470703 1522.219116,1428.915161 
	C1526.256226,1408.000732 1526.373535,1386.903198 1527.164917,1365.782104 
	C1528.885010,1319.869263 1530.684448,1273.956909 1532.903931,1228.066284 
	C1534.174194,1201.801880 1535.958252,1175.504883 1542.138550,1149.825806 
	C1551.654785,1110.286377 1567.442139,1073.767578 1595.432861,1043.463867 
	C1609.656006,1028.065308 1626.188599,1015.460205 1643.914307,1004.370667 
	C1646.451172,1002.783508 1649.014648,1001.238708 1652.293335,999.228088 
	C1650.141724,997.726807 1648.347046,996.433899 1646.512207,995.200623 
	C1625.578125,981.129456 1605.611816,965.853027 1588.690552,947.015442 
	C1563.065552,918.488220 1547.544678,884.658325 1541.446533,847.262756 
	C1536.449707,816.620789 1534.129028,785.478271 1531.910522,754.465393 
	C1529.678223,723.260132 1529.267822,691.928955 1527.632202,660.675293 
	C1526.040527,630.260742 1523.601074,599.889771 1522.097656,569.471741 
	C1520.548828,538.135681 1496.541992,521.145142 1473.590332,518.125427 
	C1453.335449,515.460571 1432.876709,514.262939 1412.481323,512.787781 
	C1404.715576,512.226135 1396.875000,512.696472 1388.692139,512.696472 
	C1388.692139,458.338104 1388.692139,404.800537 1388.692139,350.862213 
	C1435.868286,350.226715 1482.761475,350.369904 1529.707764,358.238220 
z"/>
<path fill="#FFFFFF" opacity="1.000000" stroke="none" 
	d="
M295.300171,1398.757568 
	C295.097412,1387.623901 294.919952,1376.967163 294.693115,1366.311401 
	C293.803528,1324.524292 293.423248,1282.717285 291.809204,1240.958008 
	C290.781342,1214.365234 288.433746,1187.778076 277.945557,1162.708618 
	C270.617310,1145.192383 260.953247,1129.139526 248.564240,1114.801636 
	C234.148514,1098.118286 214.742676,1090.293335 193.870361,1086.115723 
	C180.372452,1083.413818 166.526932,1082.446167 152.835052,1080.718506 
	C151.037231,1080.491577 149.226959,1080.363281 147.224670,1080.170288 
	C147.224670,1026.138184 147.224670,972.373413 147.224670,918.793030 
	C158.742584,917.542480 170.189728,916.843506 181.442291,914.973572 
	C212.300049,909.845520 239.271988,897.121521 259.356445,872.333252 
	C271.694305,857.106018 277.546875,838.817383 282.089996,820.122253 
	C290.947998,783.671570 293.525421,746.497070 294.277740,709.152039 
	C295.059326,670.355652 295.143188,631.538452 296.453186,592.761475 
	C297.554260,560.168945 298.944000,527.441162 306.626465,495.573669 
	C322.485840,429.787598 364.424500,388.101685 427.877747,367.169556 
	C454.271973,358.462555 481.662933,354.366699 509.324066,353.135315 
	C541.253479,351.713928 573.234802,351.458130 605.193970,350.714417 
	C606.179260,350.691498 607.169250,350.870941 608.519348,350.987244 
	C608.519348,404.609985 608.519348,458.154938 608.519348,512.997681 
	C597.082275,512.997681 585.790955,512.606262 574.536438,513.083984 
	C554.739197,513.924316 535.101257,515.959900 515.697205,520.522034 
	C496.141785,525.119690 484.563263,537.109863 478.880188,555.885376 
	C473.669067,573.101624 472.007690,590.774902 471.313690,608.602966 
	C469.099152,665.493469 467.234467,722.399841 464.617157,779.271606 
	C463.223297,809.558289 459.277557,839.477539 450.537659,868.790527 
	C434.958618,921.041321 403.027039,960.418640 358.211304,990.221069 
	C353.945099,993.058105 349.730377,995.972656 345.157776,999.077942 
	C352.893188,1004.398438 360.324738,1009.329712 367.569214,1014.521912 
	C415.875305,1049.143555 444.275818,1096.099365 454.975372,1154.371094 
	C460.888580,1186.575562 463.302704,1219.049805 464.915649,1251.655884 
	C466.725128,1288.234619 468.719971,1324.804077 470.617004,1361.378540 
	C471.669006,1381.661011 472.736389,1401.942871 473.705750,1422.229370 
	C474.894897,1447.114258 492.345276,1470.376221 516.573120,1476.569092 
	C531.477173,1480.378784 546.969482,1482.301147 562.321350,1483.821899 
	C576.206787,1485.197388 590.260254,1484.873291 604.239197,1485.313477 
	C605.374878,1485.349243 606.506897,1485.500610 607.960999,1485.625854 
	C607.960999,1539.590088 607.960999,1593.343140 607.960999,1647.890747 
	C606.371338,1647.890747 604.785706,1647.932129 603.202698,1647.884521 
	C570.089050,1646.890259 536.910278,1646.853394 503.880402,1644.617310 
	C469.421692,1642.284424 435.519165,1635.946045 403.537262,1621.998169 
	C355.909973,1601.226929 325.589203,1565.295898 311.112274,1515.699219 
	C302.814972,1487.273560 299.108521,1458.074585 297.031067,1428.632568 
	C296.340210,1418.841431 295.872498,1409.034424 295.300171,1398.757568 
z"/>
</svg>